<?xml version="1.0" encoding="utf-8"?>
<!-- Generator: Adobe Illustrator 21.1.0, SVG Export Plug-In . SVG Version: 6.00 Build 0)  -->
<svg version="1.1" id="图层_1" xmlns="http://www.w3.org/2000/svg" xmlns:xlink="http://www.w3.org/1999/xlink" x="0px" y="0px"
	 viewBox="0 0 100 100" style="enable-background:new 0 0 100 100;" xml:space="preserve">
<style type="text/css">
	.st0{fill:#0D01FF;}
</style>
<path class="st0" d="M25.7,38.4c-1.1,0-2,0.9-2,2s0.9,2,2,2h36.2c1.1,0,2-0.9,2-2s-0.9-2-2-2H25.7z"/>
<path class="st0" d="M69.8,38.4c-1.1,0-2,0.9-2,2s0.9,2,2,2h7.9c1.1,0,2-0.9,2-2s-0.9-2-2-2H69.8z"/>
<path class="st0" d="M25.7,46.3c-1.1,0-2,0.9-2,2s0.9,2,2,2h44.1c1.1,0,2-0.9,2-2s-0.9-2-2-2H25.7z"/>
<path class="st0" d="M25.7,58c-1.1,0-2,0.9-2,2s0.9,2,2,2h48c1.1,0,2-0.9,2-2s-0.9-2-2-2H25.7z"/>
<path class="st0" d="M25.7,65.9c-1.1,0-2,0.9-2,2s0.9,2,2,2H54c1.1,0,2-0.9,2-2s-0.9-2-2-2H25.7z"/>
<path class="st0" d="M87.5,10.9v16.7v61.5c0,2.6-2.1,4.7-4.7,4.7H20.3c-2.6,0-4.7-2.1-4.7-4.7V27.6V10.9c0-2.6,2.1-4.7,4.7-4.7H37
	h29.2h16.7C85.4,6.2,87.5,8.4,87.5,10.9z M82.8,9.4H65.6H37.5H20.3c-0.9,0-1.6,0.7-1.6,1.6v17.2v60.9c0,0.9,0.7,1.6,1.6,1.6h62.5
	c0.9,0,1.6-0.7,1.6-1.6v-61V10.9C84.4,10.1,83.7,9.4,82.8,9.4z"/>
<circle class="st0" cx="28.5" cy="21.7" r="4.8"/>
</svg>
