<?xml version="1.0" encoding="utf-8"?>
<!-- Generator: Adobe Illustrator 21.1.0, SVG Export Plug-In . SVG Version: 6.00 Build 0)  -->
<svg version="1.1" id="图层_1" xmlns="http://www.w3.org/2000/svg" xmlns:xlink="http://www.w3.org/1999/xlink" x="0px" y="0px"
	 viewBox="0 0 100 100" style="enable-background:new 0 0 100 100;" xml:space="preserve">
<style type="text/css">
	.st0{fill:#0D01FF;}
</style>
<g id="surface1">
	<path class="st0" d="M49.6,0.1c-0.4,0.1-0.8,0.3-1.1,0.6L0.8,50.5c-0.8,0.8-0.8,2.1,0,2.8s2.1,0.7,2.8-0.1l6.3-6.6V100h80V46.7
		l6.3,6.6c0.8,0.8,2,0.9,2.8,0.1s0.9-2,0.1-2.8L51.4,0.8C51,0.2,50.3,0,49.6,0.1z M50,5l36,37.5V96H64V54H36v42H14V42.5L50,5z
		 M70,10v6.1l4,4.1V14h4v10.4l4,4.2V10H70z M40,58h20v38H40V58z"/>
</g>
</svg>
