<?xml version="1.0" encoding="utf-8"?>
<!-- Generator: Adobe Illustrator 21.1.0, SVG Export Plug-In . SVG Version: 6.00 Build 0)  -->
<svg version="1.1" id="图层_1" xmlns="http://www.w3.org/2000/svg" xmlns:xlink="http://www.w3.org/1999/xlink" x="0px" y="0px"
	 viewBox="0 0 39 39" style="enable-background:new 0 0 39 39;" xml:space="preserve">
<style type="text/css">
	.st0{fill-rule:evenodd;clip-rule:evenodd;fill:#1C1C1C;}
	.st1{fill:#FFFFFF;}
</style>
<path class="st0" d="M5.1,0h28.9C36.7,0,39,2.3,39,5.1v28.9c0,2.8-2.3,5.1-5.1,5.1H5.1C2.3,39,0,36.7,0,33.9V5.1C0,2.3,2.3,0,5.1,0z
	"/>
<g>
	<g>
		<path class="st1" d="M9.4,28.1h2.4V10.9H9.4V28.1z M27.9,13.4c-1.3-1.7-3.1-2.5-5.4-2.5h-6.9v17.2h6.9c2.9,0,5-1.3,6.2-3.9
			c0.7-1.5,1-3.1,1-5C29.6,16.9,29.1,14.9,27.9,13.4z M27.1,21.4c-0.2,1.1-0.5,2-1,2.7c-0.6,0.9-1.3,1.5-2.2,1.8
			c-0.5,0.2-1.1,0.2-1.9,0.2H18V12.9h4c1.8,0,3.2,0.6,4,1.8c0.8,1.2,1.2,2.8,1.2,5C27.3,20.2,27.2,20.8,27.1,21.4z"/>
	</g>
</g>
</svg>
