<?xml version="1.0" encoding="utf-8"?>
<!-- Generator: Adobe Illustrator 21.1.0, SVG Export Plug-In . SVG Version: 6.00 Build 0)  -->
<svg version="1.1" id="图层_1" xmlns="http://www.w3.org/2000/svg" xmlns:xlink="http://www.w3.org/1999/xlink" x="0px" y="0px"
	 viewBox="0 0 39 39" style="enable-background:new 0 0 39 39;" xml:space="preserve">
<style type="text/css">
	.st0{fill-rule:evenodd;clip-rule:evenodd;fill:#1359F7;}
	.st1{fill:#FFFFFF;}
</style>
<path class="st0" d="M5.1,0h28.9C36.7,0,39,2.3,39,5.1v28.9c0,2.8-2.3,5.1-5.1,5.1H5.1C2.3,39,0,36.7,0,33.9V5.1C0,2.3,2.3,0,5.1,0z
	"/>
<g>
	<g>
		<path class="st1" d="M9.9,28.1h2.4V10.9H9.9V28.1z M27.7,12.2c-0.9-0.9-2.2-1.3-3.7-1.3h-7.7v17.2h2.3v-7.3H24
			c1.7,0,3-0.5,3.8-1.5c0.8-1,1.3-2.2,1.3-3.5C29.1,14.3,28.6,13.1,27.7,12.2z M25.8,18.2c-0.6,0.4-1.5,0.7-2.5,0.7h-4.6v-6h4.6
			c0.9,0,1.6,0.1,2.1,0.4c0.9,0.5,1.4,1.3,1.4,2.6C26.7,17,26.4,17.7,25.8,18.2z"/>
	</g>
</g>
</svg>
