<?xml version="1.0" encoding="utf-8"?>
<!-- Generator: Adobe Illustrator 21.1.0, SVG Export Plug-In . SVG Version: 6.00 Build 0)  -->
<svg version="1.1" id="图层_1" xmlns="http://www.w3.org/2000/svg" xmlns:xlink="http://www.w3.org/1999/xlink" x="0px" y="0px"
	 viewBox="0 0 48 28" style="enable-background:new 0 0 48 28;" xml:space="preserve">
<style type="text/css">
	.st0{fill:#FFFFFF;}
	.st1{fill:#FBA601;}
</style>
<g>
	<path class="st0" d="M24.4,24c-2,0-3.7-0.5-5.1-1.5c-0.5,0.8-1.4,1.3-2.3,1.3h-2.1c-1,0-1.9-0.5-2.4-1.4c-0.1-0.3-0.4-0.6-0.8-1.2
		l-1.5-1.9c0,0.6,0,0.9,0.1,1.2c0.1,0.8-0.1,1.6-0.6,2.2c-0.5,0.6-1.3,1-2.1,1H5.9c-0.8,0-1.6-0.4-2.1-1c-0.5-0.6-0.7-1.5-0.6-2.3
		c0.1-0.4,0.1-0.8,0.1-1.5V9.3c0-0.7,0-1.1-0.1-1.6C3,6.9,3.3,6.1,3.8,5.5c0.5-0.6,1.3-1,2.1-1h1.7c0.8,0,1.6,0.4,2.1,1
		c0.5,0.5,0.7,1.2,0.6,2l0.6-0.6c0.6-0.6,0.7-0.8,0.8-0.9c0.5-0.9,1.4-1.4,2.4-1.4h2.1c1.1,0,2.1,0.7,2.5,1.7
		c1.5-1.2,3.4-1.9,5.6-1.9c2.4,0,4.4,0.8,5.9,2.2c0.1-0.3,0.3-0.6,0.5-0.9c0.5-0.6,1.3-1,2.1-1h1.7c0.8,0,1.6,0.4,2.1,1
		s0.7,1.4,0.6,2.2c-0.1,0.5-0.1,0.8-0.1,1.7V17h2.9c0.8,0,1.2,0,1.7-0.1c0.1,0,0.2,0,0.3,0c0.7,0,1.3,0.2,1.8,0.7
		c0.6,0.5,0.9,1.3,0.9,2.1v1.5c0,0.8-0.4,1.6-1,2.1c-0.5,0.4-1.1,0.7-1.8,0.7c-0.1,0-0.3,0-0.4,0c-0.4-0.1-0.8-0.1-1.7-0.1h-5.3
		c-0.8,0-1.2,0-1.8,0c-0.1,0-0.1,0-0.2,0c-0.8,0-1.5-0.3-2-0.9c-0.3-0.3-0.5-0.6-0.6-1C28.8,23.2,26.7,24,24.4,24z M24.4,11
		c-1.8,0-2,2.2-2,3.1c0,0.9,0.2,3.1,2,3.1c0.7,0,1-0.2,1.2-0.4c0.4-0.4,0.8-1.3,0.8-2.7c0-1.2-0.3-2.2-0.8-2.7
		C25.3,11.2,24.9,11,24.4,11z M15.4,14.8c0-0.2,0-0.5,0-0.7c0-0.8,0.1-1.6,0.2-2.3l-1.4,1.4L15.4,14.8z"/>
	<path class="st1" d="M24.4,7c3.8,0,6.2,2.8,6.2,7.1s-2.4,7.1-6.2,7.1c-3.8,0-6.2-2.8-6.2-7.1C18.1,9.8,20.6,7,24.4,7 M24.4,20
		c1.2,0,2.3-0.4,3.1-1.2c1-1,1.6-2.7,1.6-4.6c0-2-0.5-3.6-1.6-4.6c-0.8-0.8-1.9-1.2-3.2-1.2c-2.9,0-4.8,2.3-4.8,5.8
		C19.6,17.7,21.5,20,24.4,20 M34.6,7.3c-0.1,0.7-0.1,1.1-0.1,2.1v10.3h5.7c0.9,0,1.4,0,2.1-0.1v1.5C41.6,21,41.1,21,40.1,21h-5.3
		c-0.8,0-1.3,0-2,0.1c0.1-0.7,0.1-1.3,0.1-2.1V9.4c0-0.9,0-1.5-0.1-2.1H34.6 M16.2,7.3c-0.3,0.3-0.3,0.3-0.5,0.5
		C15.5,8,15.2,8.3,15,8.5c-0.3,0.3-0.5,0.6-0.6,0.6L10.5,13l4.7,6c1,1.3,1.2,1.5,1.7,2h-2.1c-0.3-0.5-0.6-0.9-1.1-1.5L9.5,14L7.4,16
		V19c0,0.9,0,1.4,0.1,2H5.9C6,20.4,6,19.8,6,19V9.3c0-0.8,0-1.4-0.1-2h1.7c-0.1,0.6-0.1,1.1-0.1,2v5l5.5-5.5c0.7-0.7,1-1,1.2-1.5
		H16.2 M24.4,1.5c-1.9,0-3.6,0.4-5.2,1.1c-0.9-0.6-1.9-0.9-3-0.9h-2.1c-1.2,0-2.4,0.4-3.3,1.1C9.9,2.2,8.7,1.8,7.5,1.8H5.9
		c-1.6,0-3.1,0.7-4.2,1.9C0.6,5,0.2,6.6,0.4,8.2c0,0.3,0.1,0.5,0.1,1.1V19c0,0.5,0,0.8,0,1c-0.3,1.6,0.1,3.3,1.2,4.5
		c1,1.3,2.6,2,4.2,2h1.7c1.3,0,2.6-0.5,3.6-1.4c1,0.9,2.3,1.4,3.6,1.4h2.1c0.9,0,1.9-0.2,2.7-0.7c1.4,0.6,3.1,1,4.8,1
		c2,0,3.8-0.4,5.4-1.2c0.9,0.6,2,1,3.2,1c0.1,0,0.2,0,0.3,0c0.5,0,0.9,0,1.6,0h5.3c0.9,0,1.1,0,1.2,0.1c0.3,0,0.6,0.1,0.8,0.1
		c1.3,0,2.6-0.5,3.6-1.3c1.2-1,1.9-2.6,1.9-4.2v-1.5c0-1.6-0.7-3.1-1.9-4.1c-1-0.9-2.3-1.4-3.6-1.4c-0.2,0-0.5,0-0.7,0
		c-0.5,0.1-0.7,0.1-1.4,0.1H40V9.4c0-0.8,0-1,0.1-1.2c0.3-1.6-0.2-3.2-1.2-4.4c-1-1.2-2.6-1.9-4.2-1.9h-1.7c-1.1,0-2.2,0.3-3.1,1
		C28.2,2,26.4,1.5,24.4,1.5L24.4,1.5z"/>
</g>
<g>
	<path class="st0" d="M24.4,21.5c-3.9,0-6.5-2.9-6.5-7.4s2.5-7.4,6.5-7.4c3.9,0,6.5,2.9,6.5,7.4S28.3,21.5,24.4,21.5z M24.4,8.5
		c-2.7,0-4.5,2.2-4.5,5.6c0,3.4,1.8,5.6,4.5,5.6c1.2,0,2.2-0.4,2.9-1.2c1-1,1.5-2.6,1.5-4.4c0-1.9-0.5-3.4-1.5-4.4
		C26.6,8.9,25.5,8.5,24.4,8.5z M42.2,21.4c-0.6-0.1-1.1-0.1-2.1-0.1h-5.3c-0.8,0-1.3,0-1.9,0.1c0,0,0,0,0,0c-0.1,0-0.1,0-0.2-0.1
		c-0.1-0.1-0.1-0.1-0.1-0.2c0.1-0.7,0.1-1.2,0.1-2.1V9.4c0-0.9,0-1.5-0.1-2.1c0-0.1,0-0.1,0.1-0.2c0-0.1,0.1-0.1,0.2-0.1h1.7
		c0.1,0,0.1,0,0.2,0.1s0.1,0.1,0.1,0.2c-0.1,0.7-0.1,1.1-0.1,2.1v10h5.4c0.9,0,1.4,0,2.1-0.1c0,0,0,0,0,0c0.1,0,0.1,0,0.2,0.1
		c0.1,0,0.1,0.1,0.1,0.2v1.5c0,0.1,0,0.1-0.1,0.2C42.3,21.3,42.3,21.4,42.2,21.4C42.2,21.4,42.2,21.4,42.2,21.4z M14.8,21.2
		c-0.1,0-0.2,0-0.2-0.1c-0.3-0.5-0.6-1-1-1.5l-4.1-5.3l-1.8,1.8V19c0,0.9,0,1.4,0.1,2c0,0.1,0,0.1-0.1,0.2c0,0.1-0.1,0.1-0.2,0.1
		H5.9c-0.1,0-0.1,0-0.2-0.1c0-0.1-0.1-0.1-0.1-0.2c0.1-0.5,0.1-1.1,0.1-2V9.3c0-0.8,0-1.3-0.1-2c0-0.1,0-0.1,0.1-0.2
		s0.1-0.1,0.2-0.1h1.7c0.1,0,0.1,0,0.2,0.1s0.1,0.1,0.1,0.2c-0.1,0.5-0.1,1.1-0.1,2v4.4l5-5.1c0.7-0.7,1-1,1.2-1.4
		c0-0.1,0.1-0.1,0.2-0.1h2.1c0.1,0,0.2,0.1,0.2,0.2c0,0.1,0,0.2-0.1,0.3c-0.3,0.3-0.3,0.3-0.5,0.4l-0.3,0.3
		c-0.2,0.2-0.3,0.3-0.5,0.5c-0.3,0.3-0.5,0.5-0.6,0.6l-3.8,3.7l4.6,5.8c1,1.3,1.2,1.5,1.7,1.9c0.1,0.1,0.1,0.2,0.1,0.3
		s-0.1,0.2-0.2,0.2H14.8z"/>
	<path class="st0" d="M24.4,7c3.8,0,6.2,2.8,6.2,7.1s-2.4,7.1-6.2,7.1c-3.8,0-6.2-2.8-6.2-7.1C18.1,9.8,20.6,7,24.4,7 M24.4,20
		c1.2,0,2.3-0.4,3.1-1.2c1-1,1.6-2.7,1.6-4.6c0-2-0.5-3.6-1.6-4.6c-0.8-0.8-1.9-1.2-3.2-1.2c-2.9,0-4.8,2.3-4.8,5.8
		C19.6,17.7,21.5,20,24.4,20 M34.6,7.3c-0.1,0.7-0.1,1.1-0.1,2.1v10.3h5.7c0.9,0,1.4,0,2.1-0.1v1.5C41.6,21,41.1,21,40.1,21h-5.3
		c-0.8,0-1.3,0-2,0.1c0.1-0.7,0.1-1.3,0.1-2.1V9.4c0-0.9,0-1.5-0.1-2.1H34.6 M16.2,7.3c-0.3,0.3-0.3,0.3-0.5,0.5
		C15.5,8,15.2,8.3,15,8.5c-0.3,0.3-0.5,0.6-0.6,0.6L10.5,13l4.7,6c1,1.3,1.2,1.5,1.7,2h-2.1c-0.3-0.5-0.6-0.9-1.1-1.5L9.5,14L7.4,16
		V19c0,0.9,0,1.4,0.1,2H5.9C6,20.4,6,19.8,6,19V9.3c0-0.8,0-1.4-0.1-2h1.7c-0.1,0.6-0.1,1.1-0.1,2v5l5.5-5.5c0.7-0.7,1-1,1.2-1.5
		H16.2 M24.4,6.5c-4.1,0-6.7,3-6.7,7.6c0,4.6,2.6,7.6,6.7,7.6c4.1,0,6.7-3,6.7-7.6C31.1,9.5,28.5,6.5,24.4,6.5L24.4,6.5z M24.4,19.5
		c-2.6,0-4.3-2.1-4.3-5.4c0-3.2,1.7-5.3,4.3-5.3c1.1,0,2.1,0.4,2.8,1.1c0.9,0.9,1.4,2.4,1.4,4.3c0,1.8-0.5,3.3-1.5,4.3
		C26.4,19.1,25.5,19.5,24.4,19.5L24.4,19.5z M34.6,6.8h-1.7c-0.1,0-0.3,0.1-0.4,0.2s-0.1,0.3-0.1,0.4c0.1,0.6,0.1,1.1,0.1,2v9.5
		c0,0.9,0,1.4-0.1,2.1c0,0.1,0,0.3,0.1,0.4c0.1,0.1,0.2,0.2,0.4,0.2c0,0,0,0,0,0c0.6,0,1.1-0.1,1.9-0.1h5.3c0.9,0,1.4,0,2,0.1
		c0,0,0.1,0,0.1,0c0.1,0,0.2,0,0.3-0.1c0.1-0.1,0.2-0.2,0.2-0.4v-1.5c0-0.1-0.1-0.3-0.2-0.4c-0.1-0.1-0.2-0.1-0.3-0.1c0,0,0,0-0.1,0
		c-0.6,0.1-1.1,0.1-2,0.1H35V9.4c0-0.9,0-1.4,0.1-2c0-0.1,0-0.3-0.1-0.4C34.9,6.9,34.7,6.8,34.6,6.8L34.6,6.8z M16.2,6.8h-2.1
		c-0.2,0-0.3,0.1-0.4,0.3c-0.2,0.4-0.5,0.7-1.2,1.4l-4.6,4.7V9.3c0-0.9,0-1.4,0.1-1.9c0-0.1,0-0.3-0.1-0.4C7.8,6.9,7.7,6.8,7.5,6.8
		H5.9C5.7,6.8,5.6,6.9,5.5,7C5.4,7.1,5.4,7.2,5.4,7.4C5.5,8,5.5,8.5,5.5,9.3V19c0,0.9,0,1.4-0.1,1.9c0,0.1,0,0.3,0.1,0.4
		c0.1,0.1,0.2,0.2,0.4,0.2h1.7c0.1,0,0.3-0.1,0.4-0.2C8,21.2,8.1,21,8,20.9c-0.1-0.6-0.1-1.1-0.1-1.9v-2.7l1.6-1.5l3.9,5
		c0.4,0.6,0.7,1,1,1.5c0.1,0.2,0.3,0.3,0.4,0.3h2.1c0.2,0,0.4-0.1,0.5-0.3c0.1-0.2,0-0.4-0.1-0.5c-0.5-0.5-0.6-0.6-1.6-1.9l-4.4-5.6
		l3.6-3.6c0.1-0.1,0.3-0.3,0.6-0.6c0.2-0.2,0.3-0.3,0.5-0.5l0.3-0.3C16.3,8,16.3,8,16.6,7.7c0.1-0.1,0.2-0.4,0.1-0.5
		C16.6,6.9,16.4,6.8,16.2,6.8L16.2,6.8z"/>
</g>
</svg>
