<?xml version="1.0" encoding="utf-8"?>
<!-- Generator: Adobe Illustrator 21.1.0, SVG Export Plug-In . SVG Version: 6.00 Build 0)  -->
<svg version="1.1" id="图层_1" xmlns="http://www.w3.org/2000/svg" xmlns:xlink="http://www.w3.org/1999/xlink" x="0px" y="0px"
	 viewBox="0 0 100 100" style="enable-background:new 0 0 100 100;" xml:space="preserve">
<style type="text/css">
	.st0{fill:#0D01FF;}
	.st1{fill:none;stroke:#0D01FF;stroke-width:4;stroke-linecap:round;stroke-linejoin:round;stroke-miterlimit:10;}
</style>
<path class="st0" d="M97,10.9v16.7v61.5c0,2.6-2.1,4.7-4.7,4.7H9.4c-2.6,0-4.7-2.1-4.7-4.7V27.6V10.9c0-2.6,2.1-4.7,4.7-4.7H26h40.1
	h26.2C94.9,6.2,97,8.4,97,10.9z M92.3,9.4H65.6h-39H9.4c-0.9,0-1.6,0.7-1.6,1.6v17.2v60.9c0,0.9,0.7,1.6,1.6,1.6h82.9
	c0.9,0,1.6-0.7,1.6-1.6v-61V10.9C93.9,10.1,93.2,9.4,92.3,9.4z"/>
<path class="st1" d="M7.8,50h13.1l2.2-8.8c0.5-2,3.3-2.1,3.9-0.1c3,9.3,8.1,24.8,8.1,24.1c0-0.9,8.8-28.4,12.9-41.5
	c0.6-1.9,3.4-1.9,3.9,0.1l11.6,46c0.5,2,3.3,2.1,3.9,0.1l9.1-28.7c0.6-1.7,3-1.9,3.8-0.3l4.5,9.2H95"/>
</svg>
